<?xml version="1.0" encoding="UTF-8" standalone="no"?><!DOCTYPE svg PUBLIC "-//W3C//DTD SVG 1.1//EN" "http://www.w3.org/Graphics/SVG/1.1/DTD/svg11.dtd"><svg width="100%" height="100%" viewBox="0 0 2000 2000" version="1.1" xmlns="http://www.w3.org/2000/svg" xmlns:xlink="http://www.w3.org/1999/xlink" xml:space="preserve" xmlns:serif="http://www.serif.com/" style="fill-rule:evenodd;clip-rule:evenodd;stroke-linecap:round;stroke-linejoin:round;stroke-miterlimit:10;"><path d="M1250.903,902.017l-0.749,-0.142l-32.764,-6.221l-51.316,29.633l-11.237,32.202l-0.001,0.004c-36.971,21.16 -73.949,42.308 -110.92,63.468l-43.369,-25.26l-0.074,0.042l-0.271,-0.159l0,-49.439c10.32,6.013 3.103,1.808 0,0l0,-0.94l110.905,-63.452l33.514,6.367l51.316,-29.633l10.988,-31.486l0.251,-0.72l280.271,-161.814l11.665,20.205l21.518,-39.31l43.681,75.658l-44.803,-1.02l11.665,20.205l-280.271,161.814Z" style="fill:url(#_Linear1);"/><path d="M1403.953,1168.161l-31.773,55.321l-63.796,-0.144l-42.993,-74.437l-110.554,-191.412l11.237,-32.202l51.316,-29.633l32.764,6.221l153.799,266.287Z" style="fill:url(#_Linear2);"/><path d="M648.669,1259.254l-32.023,-55.177l32.023,-55.177l85.982,-0l221.567,-0.003l22.272,25.835l0.005,59.257l-22.267,25.842l-307.56,-0.578Z" style="fill:url(#_Linear3);"/><rect id="Artboard6" x="0" y="0" width="2000" height="2000" style="fill:none;"/><path d="M1111.108,881.752l-111.398,-192.344l43.282,-74.569l-31.773,-55.321l-63.796,0.144l-3.934,6.748l24.572,-42.783l63.796,0.144l175.069,303.228l-10.988,31.486l-51.316,29.633l-33.514,-6.367Z" style="fill:url(#_Linear4);"/><path d="M357.509,1252.935c-32.127,-79.622 -49.832,-166.461 -49.832,-257.235c0,-380.778 311.546,-692.323 692.323,-692.323c380.778,0 692.323,311.546 692.323,692.323c0,160.992 -55.691,309.608 -148.76,427.534c-127.057,160.993 -323.778,264.789 -543.564,264.789c-290.004,0 -539.85,-180.712 -642.491,-435.089Zm213.465,105.538c96.878,113.145 239.219,188.448 385.254,197.431l0,27.555l23.331,0l-23.285,38.29l87.362,0l-23.285,-38.29l23.331,0l0,-27.555c178.488,-11.069 350.491,-120.925 441.577,-278.199c91.087,-157.274 100.894,-362.085 21.375,-523.335l24.539,-14.168l-11.665,-20.205l44.803,1.02l-43.681,-75.658l-21.518,39.31l-11.665,-20.205l-24.662,14.239c-98.759,-149.42 -280.539,-244.039 -462.486,-244.327c-181.947,-0.289 -364.996,94.129 -464.229,243.234l-23.947,-13.826l-11.665,20.205l-21.518,-39.31l-43.681,75.658l44.803,-1.02l-11.665,20.205l24.178,13.959c-80.783,160.395 -71.03,364.049 19.844,522.25c16.839,29.315 36.522,57.008 58.557,82.742Z" style="fill:url(#_Radial5);"/><path d="M750.34,901.018l31.837,-6.052l51.321,29.624l11.243,32.207l0.613,0.357l-110.704,191.745l-85.982,0l-32.023,55.177l32.023,55.177l12.17,0.023l-53.697,0.122l-31.773,-55.321l174.971,-303.059Z" style="fill:url(#_Linear6);"/><path d="M947.422,559.663l63.796,-0.144l31.773,55.321l-42.968,74.452l-110.491,191.448l-33.506,6.37l-51.321,-29.624l-10.995,-31.485l153.712,-266.337Z" style="fill:url(#_Linear7);"/><path d="M1043.672,1148.9l221.719,0l42.993,74.437l63.796,0.144l31.773,-55.321l20.845,35.916l-32.023,55.177l-349.591,0l-21.774,-25.259l-0.005,-59.257l22.268,-25.837Z" style="fill:url(#_Linear8);"/><path d="M956.228,1259.831l22.267,-25.842l-0.005,-59.257l-22.272,-25.835c0.161,-42.704 0.434,-111.369 0.501,-128.123l43.754,-25.031l43.167,25.375c0.092,-0.053 0.184,-0.105 0.276,-0.158l0.271,0.158l-0.512,127.779l-22.271,25.841l0.005,59.257l22.272,25.837l0,323.628l-23.331,0l23.285,38.29l-87.362,0l23.285,-38.29l-23.331,0l0,-323.628Z" style="fill:url(#_Linear9);"/><path d="M792.393,825.599l11.246,32.205l51.321,29.624l33.51,-6.37c36.838,21.454 73.669,42.92 110.507,64.374l0.401,50.614l-44.234,25.073l-110.404,-64.32l-11.243,-32.207l-51.321,-29.624l-33.511,6.37l-280.27,-161.814l11.665,-20.205l-44.803,1.02l43.681,-75.658l21.518,39.31l11.665,-20.205l280.271,161.814Z" style="fill:url(#_Linear10);"/><path d="M1042.637,1259.254l350.138,0l32.023,-55.177l-32.023,-55.177" style="fill:none;fill-rule:nonzero;stroke:#000;stroke-width:8.33px;"/><path d="M999.709,689.408l111.398,192.344" style="fill:none;fill-rule:nonzero;stroke:#000;stroke-width:8.33px;"/><path d="M1000.203,995.584l43.985,25.377c37.063,-21.212 73.586,-42.255 110.649,-63.468l11.238,-32.206l51.316,-29.633l33.513,6.363l280.271,-161.814l-11.665,-20.205l44.803,1.02l-43.681,-75.658l-21.518,39.31l-11.665,-20.205l-280.271,161.814l-11.239,32.207l-51.316,29.633l-33.514,-6.367l-110.905,63.452l0,50.379Z" style="fill:none;fill-rule:nonzero;stroke:#000;stroke-width:8.33px;"/><path d="M888.471,881.057l154.52,-266.218l-31.773,-55.321l-63.796,0.144l-155.029,265.937" style="fill:none;fill-rule:nonzero;stroke:#000;stroke-width:8.33px;"/><path d="M1154.838,957.489l153.546,265.849l63.796,0.144l31.773,-55.321l-153.799,-266.287" style="fill:none;fill-rule:nonzero;stroke:#000;stroke-width:8.33px;"/><path d="M956.218,1148.897l-307.549,0.003l-32.023,55.177l32.023,55.177l307.56,0.578" style="fill:none;fill-rule:nonzero;stroke:#000;stroke-width:8.33px;"/><path d="M734.651,1148.9l111.112,-192.452" style="fill:none;fill-rule:nonzero;stroke:#000;stroke-width:8.33px;"/><path d="M1206.925,827l-175.069,-303.228l-63.796,-0.144l-31.773,55.321" style="fill:none;fill-rule:nonzero;stroke:#000;stroke-width:8.33px;"/><path d="M1098.474,310.417l0,64.909l-198.132,0l0,67.857" style="fill:none;fill-rule:nonzero;stroke:#000;stroke-width:8.33px;"/><path d="M750.438,900.849l-175.069,303.228l31.773,55.321l63.796,-0.144" style="fill:none;fill-rule:nonzero;stroke:#000;stroke-width:8.33px;"/><path d="M357.289,1253.062l56.213,-32.454l99.066,171.587l58.766,-33.928" style="fill:none;fill-rule:nonzero;stroke:#000;stroke-width:8.33px;"/><path d="M1544.237,1423.624l-56.212,-32.454l99.066,-171.587l-58.766,-33.928" style="fill:none;fill-rule:nonzero;stroke:#000;stroke-width:8.33px;"/><path d="M1462.785,678.704c-98.759,-149.42 -280.539,-244.039 -462.486,-244.327c-181.947,-0.289 -364.996,94.129 -464.229,243.234" style="fill:none;fill-rule:nonzero;stroke:#000;stroke-width:8.33px;"/><path d="M1043.682,1555.905c178.488,-11.069 350.491,-120.925 441.577,-278.199c91.087,-157.274 100.894,-362.085 21.375,-523.335" style="fill:none;fill-rule:nonzero;stroke:#000;stroke-width:8.33px;"/><path d="M1265.391,1148.9l-222.266,0" style="fill:none;fill-rule:nonzero;stroke:#000;stroke-width:8.33px;"/><path d="M1692.323,995.701c0,380.778 -311.546,692.323 -692.323,692.323c-380.778,0 -692.323,-311.546 -692.323,-692.323c0,-380.778 311.546,-692.323 692.323,-692.323c380.778,0 692.323,311.546 692.323,692.323" style="fill:none;fill-rule:nonzero;stroke:#000;stroke-width:8.33px;"/><path d="M1000.203,995.584l-0,-49.439c0,0 -74.83,-43.596 -111.732,-65.088l-33.51,6.37l-51.321,-29.624l-11.246,-32.205l-280.271,-161.814l-11.665,20.205l-21.518,-39.31l-43.681,75.658l44.803,-1.02l-11.665,20.205l280.27,161.814l33.511,-6.37l51.321,29.624l11.243,32.207l111.977,63.976l43.483,-25.19Z" style="fill:none;fill-rule:nonzero;stroke:#000;stroke-width:8.33px;"/><path d="M1000.547,995.701l-43.828,25.073c-0.067,16.754 -0.34,85.42 -0.501,128.123l22.272,25.835l0.005,59.257l-22.267,25.842l0,323.628l23.331,0l-23.285,38.29l87.362,0l-23.285,-38.29l23.331,0l0,-323.628l-22.272,-25.837l-0.005,-59.257l22.271,-25.841l0.512,-127.779l-43.64,-25.418Z" style="fill:none;fill-rule:nonzero;stroke:#000;stroke-width:8.33px;"/><path d="M492.574,753.481c-80.783,160.395 -71.03,364.049 19.844,522.25c90.874,158.201 264.56,269.148 443.811,280.173" style="fill:none;fill-rule:nonzero;stroke:#000;stroke-width:8.33px;"/><defs><linearGradient id="_Linear1" x1="0" y1="0" x2="1" y2="0" gradientUnits="userSpaceOnUse" gradientTransform="matrix(-44.471003,-75.307627,75.307627,-44.471003,1326.72772,858.239522)"><stop offset="0" style="stop-color:#ffdb00;stop-opacity:1"/><stop offset="0.36" style="stop-color:#ffbc00;stop-opacity:1"/><stop offset="1" style="stop-color:#ffb600;stop-opacity:1"/></linearGradient><linearGradient id="_Linear2" x1="0" y1="0" x2="1" y2="0" gradientUnits="userSpaceOnUse" gradientTransform="matrix(95.316326,-55.614073,55.614073,95.316326,1154.837768,957.488677)"><stop offset="0" style="stop-color:#ffdb00;stop-opacity:1"/><stop offset="0.44" style="stop-color:#ffbd00;stop-opacity:1"/><stop offset="1" style="stop-color:#ffb600;stop-opacity:1"/></linearGradient><linearGradient id="_Linear3" x1="0" y1="0" x2="1" y2="0" gradientUnits="userSpaceOnUse" gradientTransform="matrix(0,110.931968,-110.931968,0,956.217847,1148.899511)"><stop offset="0" style="stop-color:#ffdb00;stop-opacity:1"/><stop offset="0.17" style="stop-color:#ffcb00;stop-opacity:1"/><stop offset="0.37" style="stop-color:#ffbc00;stop-opacity:1"/><stop offset="1" style="stop-color:#ffb600;stop-opacity:1"/></linearGradient><linearGradient id="_Linear4" x1="0" y1="0" x2="1" y2="0" gradientUnits="userSpaceOnUse" gradientTransform="matrix(95.316326,-55.614073,55.614073,95.316326,1154.837768,957.488677)"><stop offset="0" style="stop-color:#ffdb00;stop-opacity:1"/><stop offset="0.44" style="stop-color:#ffbd00;stop-opacity:1"/><stop offset="1" style="stop-color:#ffb600;stop-opacity:1"/></linearGradient><radialGradient id="_Radial5" cx="0" cy="0" r="1" gradientUnits="userSpaceOnUse" gradientTransform="matrix(825.545956,0,0,825.545956,1000,995.700868)"><stop offset="0" style="stop-color:#ffca48;stop-opacity:1"/><stop offset="0.67" style="stop-color:#ffdb00;stop-opacity:1"/><stop offset="0.85" style="stop-color:#ffb600;stop-opacity:1"/><stop offset="1" style="stop-color:#d39600;stop-opacity:1"/></radialGradient><linearGradient id="_Linear6" x1="0" y1="0" x2="1" y2="0" gradientUnits="userSpaceOnUse" gradientTransform="matrix(-96.075269,-55.461599,55.461599,-96.075269,844.741819,956.79799)"><stop offset="0" style="stop-color:#ffdb00;stop-opacity:1"/><stop offset="0.36" style="stop-color:#ffbc00;stop-opacity:1"/><stop offset="1" style="stop-color:#ffb600;stop-opacity:1"/></linearGradient><linearGradient id="_Linear7" x1="0" y1="0" x2="1" y2="0" gradientUnits="userSpaceOnUse" gradientTransform="matrix(-96.075269,-55.461599,55.461599,-96.075269,844.741819,956.79799)"><stop offset="0" style="stop-color:#ffdb00;stop-opacity:1"/><stop offset="0.36" style="stop-color:#ffbc00;stop-opacity:1"/><stop offset="1" style="stop-color:#ffb600;stop-opacity:1"/></linearGradient><linearGradient id="_Linear8" x1="0" y1="0" x2="1" y2="0" gradientUnits="userSpaceOnUse" gradientTransform="matrix(0,110.931968,-110.931968,0,956.217847,1148.899511)"><stop offset="0" style="stop-color:#ffdb00;stop-opacity:1"/><stop offset="0.17" style="stop-color:#ffcb00;stop-opacity:1"/><stop offset="0.37" style="stop-color:#ffbc00;stop-opacity:1"/><stop offset="1" style="stop-color:#ffb600;stop-opacity:1"/></linearGradient><linearGradient id="_Linear9" x1="0" y1="0" x2="1" y2="0" gradientUnits="userSpaceOnUse" gradientTransform="matrix(87.969375,0,0,87.969375,956.217847,1417.928424)"><stop offset="0" style="stop-color:#ffdb00;stop-opacity:1"/><stop offset="0.45" style="stop-color:#ffbe00;stop-opacity:1"/><stop offset="1" style="stop-color:#ffb600;stop-opacity:1"/></linearGradient><linearGradient id="_Linear10" x1="0" y1="0" x2="1" y2="0" gradientUnits="userSpaceOnUse" gradientTransform="matrix(-43.726897,75.737237,-75.737237,-43.726897,792.393446,825.599154)"><stop offset="0" style="stop-color:#ffdb00;stop-opacity:1"/><stop offset="0.19" style="stop-color:#fc0;stop-opacity:1"/><stop offset="0.4" style="stop-color:#ffbd00;stop-opacity:1"/><stop offset="1" style="stop-color:#ffb600;stop-opacity:1"/></linearGradient></defs></svg>